<svg xmlns="http://www.w3.org/2000/svg" width="24" height="24" viewBox="0 0 24 24" fill="#C71D23">
  <path d="M12 2.5c-5.25 0-9.5 4.25-9.5 9.5 0 4.2 2.73 7.77 6.52 9.03.48.09.65-.21.65-.46 0-.23-.01-.99-.01-1.81-2.4.44-3.02-.58-3.21-1.11-.11-.28-.57-1.11-.98-1.34-.33-.18-.81-.62-.01-.63.75-.01 1.29.69 1.47.98.86 1.45 2.24 1.04 2.79.79.09-.62.34-1.04.61-1.28-2.13-.24-4.36-1.07-4.36-4.74 0-1.05.37-1.91.98-2.58-.1-.24-.43-1.22.09-2.54 0 0 .8-.25 2.63.98.76-.21 1.58-.32 2.39-.32.81 0 1.63.11 2.39.32 1.83-1.24 2.63-.98 2.63-.98.52 1.32.19 2.3.09 2.54.61.67.98 1.52.98 2.58 0 3.68-2.24 4.5-4.37 4.74.35.3.65.87.65 1.76 0 1.27-.01 2.3-.01 2.61 0 .25.18.55.65.46A9.51 9.51 0 0021.5 12c0-5.25-4.25-9.5-9.5-9.5z"/>
</svg>